<svg xmlns="http://www.w3.org/2000/svg" viewBox="0 0 1500 1000" role="img" aria-label="Invitation texture filler image">
  <defs>
    <linearGradient id="paper" x1="0" y1="0" x2="1" y2="1">
      <stop offset="0" stop-color="#f9f3ea"/>
      <stop offset="1" stop-color="#eadbc7"/>
    </linearGradient>
    <radialGradient id="wash1" cx="22%" cy="36%" r="36%">
      <stop offset="0" stop-color="#8b2f2f" stop-opacity="0.20"/>
      <stop offset="1" stop-color="#8b2f2f" stop-opacity="0"/>
    </radialGradient>
    <radialGradient id="wash2" cx="77%" cy="68%" r="44%">
      <stop offset="0" stop-color="#2f4a3a" stop-opacity="0.18"/>
      <stop offset="1" stop-color="#2f4a3a" stop-opacity="0"/>
    </radialGradient>
  </defs>
  <rect width="1500" height="1000" fill="url(#paper)"/>
  <path d="M120 140 h1260 v720 h-1260 z" fill="#fffaf3" opacity="0.7"/>
  <path d="M120 140 C150 165, 180 120, 210 145 C260 175, 280 118, 340 150 C420 190, 460 130, 520 160 C620 200, 740 130, 860 160 C980 190, 1110 125, 1250 165 C1310 182, 1350 120, 1380 150" fill="none" stroke="#c8a25a" stroke-opacity="0.33" stroke-width="6"/>
  <rect width="1500" height="1000" fill="url(#wash1)"/>
  <rect width="1500" height="1000" fill="url(#wash2)"/>
  <rect width="1500" height="1000" fill="#fff1dd" opacity="0.09"/>
</svg>
